# xmcd
# 
# Track frame offsets:
#   150
#   20971
#   39180
#   57416
#   70982
#   83468
#   101032
#   118133
#   133877
#   151457
#   166153
#   183379
#   198716
#   215299
# 
# Disc length: 3095 seconds
# 
# Revision: 3
# Processed by: cddbd v1.5.2PL0 Copyright (c) Steve Scherf et al.
# Submitted via: Synapstar 1.0 
# 
DISCID=c80c150e
DTITLE=Various Artist - SD141
DYEAR=2006
DGENRE=Country
TTITLE0=G. BROOKS - T. YEARWOOD - LOVE WILL ALWAYS WIN
TTITLE1=CARRIE UNDERWOOD - DON'T FORGET TO REMEMBER ME
TTITLE2=GEORGE STRAIT - SEASHORES OF OLD MEXICO
TTITLE3=MARTINA McBRIDE - I STILL MISS SOMEONE
TTITLE4=BILLY CURRINGTON - WHY WHY WHY
TTITLE5=PHIL VASSAR - LAST DAY OF MY LIFE
TTITLE6=TERRI CLARK - DAMN RIGHT
TTITLE7=BIG and RICH - NEVER MIND ME
TTITLE8=HAL KETCHUM - JUST THIS SIDE OF HEAVEN
TTITLE9=REBA McENTIRE - LOVE NEEDS A HOLIDAY
TTITLE10=JOHN CORBETT - GOOD TO GO
TTITLE11=COWBOY CRUSH - HILLBILLY NATION
TTITLE12=TRENT WILLMON - ON AGAIN TONIGHT
TTITLE13=CHRIS CAGLE - WAL-MART PARKING LOT
EXTD=
EXTT0=
EXTT1=
EXTT2=
EXTT3=
EXTT4=
EXTT5=
EXTT6=
EXTT7=
EXTT8=
EXTT9=
EXTT10=
EXTT11=
EXTT12=
EXTT13=
PLAYORDER=
